<svg xmlns="http://www.w3.org/2000/svg" viewBox="0 0 1666.67 2500"><defs><style>.cls-1{fill:#0acf83;}.cls-2{fill:#a259ff;}.cls-3{fill:#f24e1e;}.cls-4{fill:#ff7262;}.cls-5{fill:#1abcfe;}</style></defs><g id="Laag_2" data-name="Laag 2"><g id="Layer_1" data-name="Layer 1"><path id="path0_fill" data-name="path0 fill" class="cls-1" d="M416.67,2500c230,0,416.66-186.67,416.66-416.67V1666.67H416.67C186.67,1666.67,0,1853.33,0,2083.33S186.67,2500,416.67,2500Z"/><path id="path1_fill" data-name="path1 fill" class="cls-2" d="M0,1250c0-230,186.67-416.67,416.67-416.67H833.33v833.34H416.67C186.67,1666.67,0,1480,0,1250Z"/><path id="path1_fill-2" data-name="path1 fill" class="cls-3" d="M0,416.67C0,186.67,186.67,0,416.67,0H833.33V833.33H416.67C186.67,833.33,0,646.67,0,416.67Z"/><path id="path2_fill" data-name="path2 fill" class="cls-4" d="M833.33,0H1250c230,0,416.67,186.67,416.67,416.67S1480,833.33,1250,833.33H833.33Z"/><path id="path3_fill" data-name="path3 fill" class="cls-5" d="M1666.67,1250c0,230-186.67,416.67-416.67,416.67S833.33,1480,833.33,1250,1020,833.33,1250,833.33,1666.67,1020,1666.67,1250Z"/></g></g></svg>