<svg xmlns="http://www.w3.org/2000/svg" viewBox="0 0 512 510.87"><defs><style>.cls-1{fill:#fff;}</style></defs><g id="Laag_2" data-name="Laag 2"><g id="Layer_1" data-name="Layer 1"><path class="cls-1" d="M119.18,164.15H16.4a8.26,8.26,0,0,0-8.26,8.26v330.2a8.25,8.25,0,0,0,8.26,8.26H119.18a8.26,8.26,0,0,0,8.26-8.26V172.41A8.26,8.26,0,0,0,119.18,164.15Z"/><path class="cls-1" d="M67.82,0A67.77,67.77,0,1,0,135.6,67.75,67.86,67.86,0,0,0,67.82,0Z"/><path class="cls-1" d="M380.62,155.94c-41.28,0-71.8,17.75-90.31,37.92V172.41a8.26,8.26,0,0,0-8.26-8.26H183.62a8.26,8.26,0,0,0-8.26,8.26v330.2a8.26,8.26,0,0,0,8.26,8.26H286.18a8.26,8.26,0,0,0,8.26-8.26V339.24c0-55.05,14.95-76.5,53.33-76.5,41.79,0,45.12,34.38,45.12,79.33V502.62a8.25,8.25,0,0,0,8.25,8.25h102.6a8.25,8.25,0,0,0,8.26-8.25V321.49C512,239.63,496.39,155.94,380.62,155.94Z"/></g></g></svg>