<svg xmlns="http://www.w3.org/2000/svg" viewBox="0 0 147.77 148.44"><defs><style>.cls-1,.cls-2{fill:#fff;}.cls-2{fill-rule:evenodd;}</style></defs><g id="Laag_2" data-name="Laag 2"><g id="Laag_1-2" data-name="Laag 1"><path class="cls-1" d="M126.24,21.57a73.58,73.58,0,0,0-115.8,88.75L0,148.44l39-10.23a73.5,73.5,0,0,0,35.16,8.95h0a73.58,73.58,0,0,0,52-125.59Zm-52,113.17h0a61.1,61.1,0,0,1-31.12-8.52l-2.24-1.33L17.67,131l6.17-22.56-1.45-2.31A61.16,61.16,0,1,1,74.2,134.74Z"/><path class="cls-2" d="M55.81,42.8c-1.38-3.06-2.83-3.12-4.14-3.17l-3.52-.05a6.77,6.77,0,0,0-4.91,2.3,20.64,20.64,0,0,0-6.43,15.33c0,9.05,6.59,17.79,7.5,19S57,96.61,75.72,104c15.53,6.12,18.69,4.9,22.06,4.6s10.88-4.45,12.41-8.74,1.53-8,1.07-8.74-1.68-1.23-3.52-2.15-10.88-5.37-12.57-6-2.91-.92-4.13.92-4.75,6-5.82,7.21-2.15,1.38-4,.46a50.18,50.18,0,0,1-14.78-9.12A56.17,56.17,0,0,1,56.22,69.71c-1.07-1.84-.11-2.84.81-3.76s1.84-2.14,2.76-3.22a12.77,12.77,0,0,0,1.84-3.06,3.39,3.39,0,0,0-.16-3.22c-.46-.92-4-10-5.66-13.65"/></g></g></svg>