<svg xmlns="http://www.w3.org/2000/svg" width="345.5" height="235" viewBox="0 0 345.5 235">
  <path id="fia-logo" d="M157.3,258.2a117.08,117.08,0,0,0,55.7-14,117.27,117.27,0,1,0-.3-207.1,117.493,117.493,0,1,0-55.4,221.1ZM233.5,35.7l3.3,8.6,12.8-3.4L248.2,32a123.077,123.077,0,0,1,13.6-1.6l.9,9,13.3-.1.9-8.8a103.682,103.682,0,0,1,13.6,2l-1.4,8.9L302,44.8l3.1-8.2A107.038,107.038,0,0,1,317.6,42L314,50.2l11.5,6.5,5-7c3.8,2.6,7.3,5.5,10.8,8.4l-5.5,6.8,9.4,9.3,6.6-5.5a98.171,98.171,0,0,1,8.2,11l-7,5.1,6.7,11.4,7.8-3.5a108.538,108.538,0,0,1,5.1,12.7l-8.1,3.1,3.5,12.8,8.3-1.4a99.607,99.607,0,0,1,1.7,13.5l-8.5,1,.1,13.3,8.4.8a91.526,91.526,0,0,1-1.7,12.8l-8.6-1.3-3.2,12.9,8,2.9a100.846,100.846,0,0,1-5.2,12.6l-8-3.4-6.4,11.6,7,4.9a108.065,108.065,0,0,1-8.3,10.9l-6.9-5.4-9.2,9.5,5.5,6.6c-3.4,3-7,5.8-10.7,8.5l-5.3-7.1-11.4,6.8,3.7,7.9a92.4,92.4,0,0,1-12.5,5.4l-3.4-8.2-12.7,3.8,1.6,8.6a99.791,99.791,0,0,1-13.5,2l-1.2-8.9-13.3.3-.7,8.8a122.948,122.948,0,0,1-13.6-1.5l1.2-9.1-12.9-3.1-3,8.5a110.178,110.178,0,0,1-13.8-5.5,117.693,117.693,0,0,0,23.7-19.7,84.581,84.581,0,0,0,25.6,4,85.923,85.923,0,0,0,55.7-21H352l-7.5-26A84.03,84.03,0,0,0,269,56.9a85.564,85.564,0,0,0-25.6,4,117.693,117.693,0,0,0-23.7-19.7A136.7,136.7,0,0,1,233.5,35.7ZM213.2,82.9a124.851,124.851,0,0,0,25.7-16.5,111.145,111.145,0,0,1,19.4,29.7l-13.2,42.7H214.5V121.6h-5.3c-.4-3-.9-6-1.6-9a22.012,22.012,0,0,0,9.1-17.8A20.322,20.322,0,0,0,213.2,82.9ZM274,188.1h29.1l3.6,15.4h11.7c-13.5,10.4-30.9,17.2-49.3,17.2a79.587,79.587,0,0,1-22.8-3.3,130.679,130.679,0,0,0,10.6-13.9h13.2Zm6.9-28,8-32.9,7.7,32.9Zm35.6-82.4H264l-2.6,8.5a112.146,112.146,0,0,0-15.1-22.1,80.025,80.025,0,0,1,96.6,107.6Zm-102,103.9v-39h29.4l-19,60.9h23.3a126.483,126.483,0,0,1-9.2,11.6,132.647,132.647,0,0,0-24.4-15.9V181.6Zm21.8-118a126.373,126.373,0,0,1-25.5,16.2,22.115,22.115,0,0,0-16-6.9h-1.6a153.632,153.632,0,0,0-33.7-42.6A110.14,110.14,0,0,1,236.3,63.6Zm-76.9-28a150.829,150.829,0,0,1,29.7,38,22.034,22.034,0,0,0-15.9,17.2,124.407,124.407,0,0,1-13.7,1V35.6Zm0,60c4.5-.1,8.9-.4,13.3-.8a22.065,22.065,0,0,0,22,22,20.926,20.926,0,0,0,9.4-2.1q.75,3.45,1.2,6.9H174.4v17.2h-15Zm0,47h15v44.3a108.139,108.139,0,0,0-15-1.1Zm0,47.1a107.083,107.083,0,0,1,15,1.2v12.7h17a154.86,154.86,0,0,1-32,42.4Zm36.3,13.8h18.8a124.6,124.6,0,0,1,21.8,14.4,110.1,110.1,0,0,1-76.9,33.2A156.635,156.635,0,0,0,195.7,203.5ZM78.3,217.9a129.833,129.833,0,0,1,21.2-14.4H112v-5.3c1.3-.5,2.7-1,4.1-1.5a163.418,163.418,0,0,0,38.7,54.5A110.091,110.091,0,0,1,78.3,217.9ZM112,194v-8.2c.8,2.4,1.7,4.8,2.6,7.2Zm43.5,51.9a149.864,149.864,0,0,1-35.8-50.5,123.583,123.583,0,0,1,35.8-5.8Zm0-60.1a127.2,127.2,0,0,0-37.3,6.1,142.173,142.173,0,0,1-6.3-19.8v-13h34.8V142.7h8.7v43.1Zm0-47h-8.7V127H112V110.6h39.1V95.5c1.5.1,3,.1,4.5.1v43.2Zm0-47c-1.5,0-3-.1-4.5-.1V76.6H124.2a149.507,149.507,0,0,1,31.3-41Zm0-61.5a153.1,153.1,0,0,0-35.6,46.2H97.7a118.632,118.632,0,0,1-19.3-13A109.964,109.964,0,0,1,155.5,30.3ZM75.7,66.4A109.392,109.392,0,0,0,90,76.6H67.9v62.2h-21A109.778,109.778,0,0,1,75.7,66.4Zm-7.8,76.2v60.9H92.2a132.637,132.637,0,0,0-16.5,11.6A109.649,109.649,0,0,1,47,142.6Z" transform="translate(-39.8 -23.2)" fill="#fff"/>
</svg>
