<svg xmlns="http://www.w3.org/2000/svg" viewBox="0 0 120 30"><defs><style>.cls-1{fill:#e10600;fill-rule:evenodd;}</style></defs><title>Middel 1</title><g id="Laag_2" data-name="Laag 2"><g id="Laag_1-2" data-name="Laag 1"><path class="cls-1" d="M101.09,30h.62V27.11h0l1,2.89h.54l1-2.89h0V30H105V26.25h-.92l-1,2.94h0l-1-2.94h-.92V30Zm-3.46-3.18h1.18V30h.66V26.82h1.19v-.57h-3v.57ZM90,30,120,0H101.94L72,30ZM85.7,13.07H49.38c-11.07,0-13,.58-17.74,5.32C27.2,22.83,20,30,20,30H35.73l3.76-3.75c2.46-2.47,3.74-2.73,8.92-2.73H75.24L85.7,13.07ZM31.15,16.25c-3.27,3.09-10.4,10-14.24,13.75H0S13.55,16.49,21.08,9.07C28.85,1.69,32.71,0,47,0H98.77L87.55,11.22H48c-10,0-12.25.69-16.85,5Z"/></g></g></svg>