<svg xmlns="http://www.w3.org/2000/svg" xmlns:xlink="http://www.w3.org/1999/xlink" viewBox="0 0 499.49 351.38"><defs><style>.cls-1{fill:url(#Naamloos_verloop_17);}.cls-2{fill:url(#Naamloos_verloop_17-2);}</style><linearGradient id="Naamloos_verloop_17" x1="98.34" y1="74.6" x2="442.74" y2="168.53" gradientUnits="userSpaceOnUse"><stop offset="0" stop-color="#00cf9e"/><stop offset="1" stop-color="#8e07f5"/></linearGradient><linearGradient id="Naamloos_verloop_17-2" x1="74.94" y1="160.4" x2="419.34" y2="254.33" xlink:href="#Naamloos_verloop_17"/></defs><g id="Laag_2" data-name="Laag 2"><g id="Layer_1" data-name="Layer 1"><path class="cls-1" d="M370.07,105.54H481.18L499.49,0,220.42,105.54h31.07c52,0,91.93,66.38,25.55,108.81l55.62,97.8,105.88,39.23,37.92-218.63H366.27c-26.65,0-28.28,43.51-.57,43.39l13.09.12c69.36,0,73.44,98.48,0,98.48h-45.7L315.4,248.09h63.39c35.9,0,32.64-44.09,3.8-44.09H365.7C299.89,204,302.08,105.54,370.07,105.54Z"/><path class="cls-2" d="M258.1,189.31c34.73.59,33.65-56.56-6.61-56.56h-103L0,188.9,289.17,296,227.54,189.31Z"/></g></g></svg>