<?xml version="1.0" encoding="utf-8"?>
<!-- Generator: Adobe Illustrator 25.4.1, SVG Export Plug-In . SVG Version: 6.00 Build 0)  -->
<svg version="1.1" id="Laag_1" xmlns="http://www.w3.org/2000/svg" xmlns:xlink="http://www.w3.org/1999/xlink" x="0px" y="0px"
	 viewBox="0 0 186.6 46" style="enable-background:new 0 0 186.6 46;" xml:space="preserve">
<style type="text/css">
	.st0{fill:#FFFFFF;}
</style>
<g id="Laag_2_00000018935110207671627190000014792359095412799884_">
	<g id="Laag_1-2">
		<path class="st0" d="M162.2,0H24.4C9.8,0,0,10.4,0,23s9.8,23,24.4,23h137.8c14.6,0,24.4-10.4,24.4-23S176.8,0,162.2,0z
			 M162.2,40.3H24.5C12.8,40.4,5.8,32.6,5.8,23S12.9,5.7,24.5,5.7h137.7c11.6,0,18.7,7.8,18.7,17.4S173.8,40.4,162.2,40.3z"/>
		<polygon class="st0" points="34.6,27.2 25.3,12.1 18.5,12.1 18.5,12.1 18.5,33.8 25.2,33.8 25.2,18.7 34.6,33.8 41.3,33.8 
			41.3,12.1 34.6,12.1 		"/>
		<polygon class="st0" points="87.7,19.4 87.7,17.3 84.2,17.3 84.2,14.4 77.7,14.4 77.7,14.4 77.7,17.3 74.1,17.3 74.1,19.4 
			77.7,19.4 77.7,33.8 84.2,33.8 84.2,19.4 		"/>
		<rect x="45" y="19.4" class="st0" width="6.5" height="14.4"/>
		<rect x="45" y="12.1" class="st0" width="6.5" height="4.4"/>
		<path class="st0" d="M159.1,18.4c-5.3,0-9.5,3.6-9.5,8.1s4.3,8.1,9.5,8.1s9.5-3.6,9.5-8.1S164.3,18.4,159.1,18.4z M161.7,26.5
			L161.7,26.5v3c0,2.3-1.4,3.2-2.7,3.2s-2.7-0.9-2.7-3.2v-6.1c0-2.3,1.4-3.2,2.7-3.2s2.7,0.9,2.7,3.2
			C161.7,24.3,161.7,25.9,161.7,26.5z"/>
		<polygon class="st0" points="161.7,26.5 161.7,26.5 161.7,26.5 		"/>
		<path class="st0" d="M141,20.1c-1.1-0.7-2.4-1.1-3.7-1.3c-4.3-0.3-8,3-8.3,7.3c0,0.1,0,0.1,0,0.2c-0.1,3,1.7,5.8,4.4,7.1
			c2.4,1.1,5.3,0.9,7.5-0.5v0.8h6.4V12.1H141V20.1z M141.1,26.5V29c0.1,1.4-0.9,2.7-2.3,2.8c-1.4,0.1-2.7-0.9-2.8-2.3
			c0-0.2,0-0.3,0-0.5v-5.1c-0.1-1.4,0.9-2.7,2.3-2.8c1.4-0.1,2.7,0.9,2.8,2.3c0,0.2,0,0.3,0,0.5V26.5z"/>
		<path class="st0" d="M66.7,18.7L66.7,18.7c-1.9,0.1-3.8,0.8-5.2,2.2v-1.5h-6.5v14.4h6.5v-9.5c0.2-1.5,1.5-2.7,3.1-2.6
			c1.5-0.1,2.9,1.1,3,2.6v9.5h6.5c0,0,0-6.8,0-7.8C74.1,20.2,69.2,18.6,66.7,18.7z"/>
		<path class="st0" d="M119.6,18.7L119.6,18.7c-1.9,0.1-3.8,0.8-5.2,2.2c0-0.4,0-1.5,0-1.5H108v14.4h6.5c0,0,0-8.8,0-9.5
			c0.2-1.5,1.5-2.7,3.1-2.6c1.5-0.1,2.9,1.1,3,2.6v9.5h6.5v-7.8C127,20.2,122.1,18.6,119.6,18.7z"/>
		<polygon class="st0" points="99.2,28.7 99.2,28.7 99.2,28.7 		"/>
		<path class="st0" d="M106,26.6c0-4.5-4.3-8.2-9.6-8.2s-9.6,3.6-9.6,8.1s4.3,8.1,9.6,8.1c4.4,0,8.1-2.5,9.2-5.9h-6.5v0.9
			c0,2.6-1.7,3.2-2.7,3.2s-2.7-0.6-2.7-3.2v-3C93.8,26.6,106,26.6,106,26.6z M94.2,21.6c0.5-0.8,1.3-1.3,2.3-1.3
			c0.9,0,1.8,0.5,2.3,1.3c0.4,0.9,0.5,1.9,0.4,2.8h-5.4C93.6,23.4,93.8,22.5,94.2,21.6z"/>
		<path class="st0" d="M171.9,13.8c0-1-0.6-1.4-1.8-1.4h-1.9v4.9h0.7v-2.1h0.9l1.3,2.1h0.8l-1.4-2.2
			C171.3,15.1,171.9,14.5,171.9,13.8C171.9,13.8,171.9,13.8,171.9,13.8z M169,14.5V13h1c0.5,0,1.1,0.1,1.1,0.7
			c0,0.8-0.6,0.8-1.2,0.8L169,14.5z"/>
		<path class="st0" d="M169.9,10.5c-2.4,0-4.2,2-4.2,4.3c0,2.4,2,4.2,4.3,4.2c2.3,0,4.2-1.9,4.2-4.3
			C174.2,12.4,172.3,10.5,169.9,10.5C169.9,10.5,169.9,10.5,169.9,10.5z M169.9,18.4c-1.9,0-3.5-1.5-3.5-3.4c0-0.1,0-0.1,0-0.2
			c0-1.9,1.6-3.5,3.5-3.5s3.5,1.6,3.5,3.5c0.1,1.9-1.4,3.5-3.3,3.6C170,18.4,170,18.4,169.9,18.4z"/>
	</g>
</g>
</svg>
