<svg xmlns="http://www.w3.org/2000/svg" xmlns:xlink="http://www.w3.org/1999/xlink" width="525" height="525" viewBox="0 0 525 525">
  <defs>
    <clipPath id="clip-Visual_Nintendo_4">
      <rect width="525" height="525"/>
    </clipPath>
  </defs>
  <g id="Visual_Nintendo_4" data-name="Visual Nintendo – 4" clip-path="url(#clip-Visual_Nintendo_4)">
    <g id="Laag_2" data-name="Laag 2" transform="translate(0 141.414)">
      <g id="svg101576">
        <g id="layer1">
          <g id="g101650">
            <path id="path100608" d="M438.732,81.647a1.515,1.515,0,0,1-1.478,1.478H409.326a1.515,1.515,0,0,1-1.478-1.478V61.47a1.478,1.478,0,0,1,1.478-1.433h27.928a1.478,1.478,0,0,1,1.478,1.433ZM437.52,54H409.1a7.492,7.492,0,0,0-7.477,7.5V81.721a7.543,7.543,0,0,0,7.477,7.5H437.52a7.536,7.536,0,0,0,7.477-7.5V61.47A7.492,7.492,0,0,0,437.52,54" transform="translate(-104.89 -14.103)" fill="#fff"/>
            <path id="path100618" d="M6.524,9.746V35.782H0V.54H5.571L31.991,26.214V.54h6.428V35.782h-5.1L6.524,9.746" transform="translate(0 -0.141)" fill="#fff"/>
            <path id="path100622" d="M95.034,9.746V35.782H88.51V.54h5.571l26.413,25.674V.54h6.443V35.782h-5.091L95.034,9.746" transform="translate(-23.116 -0.141)" fill="#fff"/>
            <path id="path100626" d="M278.494,9.746V35.782H272V.54h5.563l26.421,25.674V.54h6.435V35.782h-5.091L278.494,9.746" transform="translate(-71.037 -0.141)" fill="#fff"/>
            <path id="path100630" d="M71.13.54h1.2V35.782H65.84V.54h5.29" transform="translate(-17.195 -0.141)" fill="#fff"/>
            <path id="path100634" d="M187.56.54h1.2V6.6H173.042V35.782H166.26V6.6H150.53V.54h37.03" transform="translate(-39.313 -0.141)" fill="#fff"/>
            <path id="path100638" d="M245.473.54h1.219V6.6H218.72v7.9h21.626v6.058H218.72v9.139h27.957v6.058H212.27V.54h33.2" transform="translate(-55.438 -0.141)" fill="#fff"/>
            <path id="path100642" d="M363.755,29.7H343.717V6.6h20.037c6.265,0,8.489,6.221,8.489,11.563S370.02,29.7,363.755,29.7Zm10.7-23.975A12.962,12.962,0,0,0,363.57.55H337.43V35.792h26.14a13.181,13.181,0,0,0,10.883-5.172c2.394-3.11,3.657-7.388,3.657-12.442s-1.263-9.331-3.657-12.442" transform="translate(-88.126 -0.144)" fill="#fff"/>
            <path id="path100646" d="M438.732,28.291a1.478,1.478,0,0,1-1.478,1.433H409.326a1.478,1.478,0,0,1-1.478-1.433V8.032A1.478,1.478,0,0,1,409.326,6.6h27.928a1.478,1.478,0,0,1,1.478,1.433ZM437.52.54H409.1a7.492,7.492,0,0,0-7.477,7.492V28.291a7.492,7.492,0,0,0,7.477,7.492H437.52A7.484,7.484,0,0,0,445,28.291V8.032A7.484,7.484,0,0,0,437.52.54" transform="translate(-104.89 -0.141)" fill="#fff"/>
            <path id="path100656" d="M610.49,60.207c6.76,2.712,21.042,4.862,32.191,4.862,12.2,0,17.244-4.145,17.244-9.413,0-4.78-4.684-7.492-18.153-12.435-18.013-6.649-31.23-11.88-31.23-23.768C610.542,7.255,626.449,0,650.675,0c13.018,0,17.481.8,25.741,2.313l.067,11.644c-8.127-1.515-15.309-4.145-26.48-4.145-11.976,0-17.082,3.827-17.082,7.728,0,5.667,7.861,8.378,21.648,13.3,19.21,6.856,29.871,12.117,29.871,23.643,0,11.962-13.373,20.576-43.532,20.576a170.292,170.292,0,0,1-30.418-2.394V60.207" transform="translate(-159.44)" fill="#fff"/>
            <path id="path100660" d="M509.964,10.342H495.609V64.728h14.356c22.032,0,35.929-9.487,35.929-27.115S532,10.342,509.964,10.342Zm38.523,59.41c-7.1,3.192-20.525,5.26-32.265,5.26H471.36V.22h44.862c11.762,0,25.165,2.054,32.28,5.26,17.281,7.817,22.9,20.333,22.9,32.132s-5.586,24.322-22.9,32.139" transform="translate(-123.104 -0.057)" fill="#fff"/>
          </g>
        </g>
      </g>
    </g>
    <g id="nintendo-switch-logo" transform="translate(83.807 1133.738)">
      <path id="Path_3" data-name="Path 3" d="M223.428-832.479A36.59,36.59,0,0,0,194.4-805.8c-1.29,4.954-1.378,7.857-1.231,46.29.088,35.3.117,36.117.7,38.844,3.254,14.687,13.69,25.153,28.524,28.612,1.935.44,4.4.528,20.257.616,16.417.117,18.117.088,18.557-.352s.469-6.1.469-70.241c0-47.55-.088-69.948-.293-70.358-.293-.528-.792-.557-17.971-.528C229.467-832.889,225.274-832.8,223.428-832.479Zm26.531,70.358v59.394l-11.932-.146c-10.993-.117-12.166-.176-14.365-.733a24.867,24.867,0,0,1-18.41-19.172c-.645-2.961-.645-75.9-.029-78.8a25.175,25.175,0,0,1,15.186-18.147c3.87-1.554,5.658-1.729,18.205-1.759l11.345-.029Z" transform="translate(-84.063 -0.052)" fill="#fff"/>
      <path id="Path_4" data-name="Path 4" d="M279.668-733.512a15.634,15.634,0,0,0-6.156,3.078,12.993,12.993,0,0,0-4.368,10.905,9.225,9.225,0,0,0,1.2,4.808,13.35,13.35,0,0,0,6.3,6.332,9.085,9.085,0,0,0,5.013,1.173,10.661,10.661,0,0,0,4.691-.528,13.233,13.233,0,0,0,9.117-14.658A13.466,13.466,0,0,0,279.668-733.512Z" transform="translate(-137.782 -70.143)" fill="#fff"/>
      <path id="Path_5" data-name="Path 5" d="M475.205-832.795c-.117.088-.205,31.866-.205,70.622,0,63.938.029,70.417.469,70.593.792.293,23.541.176,26.355-.117a36.6,36.6,0,0,0,28.114-19.348,43.573,43.573,0,0,0,2.2-5.13c1.847-5.511,1.788-4.046,1.788-46.172,0-33.625-.059-38.638-.469-40.778a36.4,36.4,0,0,0-29.843-29.433c-2.052-.352-5.218-.44-15.42-.44C481.156-833,475.293-832.912,475.205-832.795Zm31.309,63.85a14.342,14.342,0,0,1,9.85,9.146,15.325,15.325,0,0,1-.029,9.322,14.474,14.474,0,0,1-9.821,9.088,14.436,14.436,0,0,1-17.267-9.792,16.806,16.806,0,0,1,.117-8.267A14.233,14.233,0,0,1,506.515-768.945Z" transform="translate(-283.307)" fill="#fff"/>
      <path id="Path_6" data-name="Path 6" d="M733.37-278.464a9.446,9.446,0,0,0-6.479,10.612,9.011,9.011,0,0,0,4.925,6.831,9.1,9.1,0,0,0,10.5-1.29,8.685,8.685,0,0,0,3.137-7.036,8.817,8.817,0,0,0-2.668-6.713A10.055,10.055,0,0,0,733.37-278.464Zm5.189,4.28a5.053,5.053,0,0,1,2.873,4.368,5.067,5.067,0,0,1-3.254,5.453c-3.928,1.642-8.384-2.14-7.27-6.215a4.913,4.913,0,0,1,2.726-3.576A5.591,5.591,0,0,1,738.559-274.184Z" transform="translate(-461.263 -391.716)" fill="#fff"/>
      <path id="Path_7" data-name="Path 7" d="M79-268.129v8.971l1.847-.088,1.818-.088.147-5.658.147-5.658,4.251,5.717,4.251,5.746,1.759-.059,1.759-.088v-17.589l-1.818-.088-1.847-.088v11.58L87-271.3l-4.339-5.775H79Z" transform="translate(-3.398 -392.933)" fill="#fff"/>
      <path id="Path_8" data-name="Path 8" d="M179-268.059v8.941h3.811V-277H179Z" transform="translate(-74.082 -393.004)" fill="#fff"/>
      <path id="Path_9" data-name="Path 9" d="M237.261-276.619c-.088.205-.117,4.192-.088,8.853l.088,8.5,1.847.088,1.818.088v-11.873l4.4,5.922,4.4,5.922h3.518V-277h-3.811l-.059,5.629-.088,5.629-4.222-5.629L240.867-277h-1.73C237.994-277,237.349-276.883,237.261-276.619Z" transform="translate(-115.194 -393.004)" fill="#fff"/>
      <path id="Path_10" data-name="Path 10" d="M334.205-276.795a5.319,5.319,0,0,0-.205,1.906v1.7h5.863v14.072h3.811v-14.072h5.57V-277h-7.417A72.717,72.717,0,0,0,334.205-276.795Z" transform="translate(-183.642 -393.004)" fill="#fff"/>
      <path id="Path_11" data-name="Path 11" d="M430-268.059v8.941h13.778v-3.518h-10.26v-4.1H442.9v-3.225h-9.381v-3.518l5.072-.059,5.042-.088.088-1.7.088-1.671H430Z" transform="translate(-251.499 -393.004)" fill="#fff"/>
      <path id="Path_12" data-name="Path 12" d="M526.261-276.619c-.088.205-.117,4.192-.088,8.853l.088,8.5,1.847.088,1.818.088v-11.873l4.4,5.922,4.4,5.922h3.518V-277h-3.811l-.059,5.629-.088,5.629-4.221-5.629L529.867-277h-1.73C526.994-277,526.349-276.883,526.261-276.619Z" transform="translate(-319.471 -393.004)" fill="#fff"/>
      <path id="Path_13" data-name="Path 13" d="M632-268.229v8.971h3.9c4.514,0,6.655-.44,8.589-1.788a8.763,8.763,0,0,0-1.583-15.3c-1.2-.557-2.023-.645-6.127-.733L632-277.2Zm9.586-4.544a5.169,5.169,0,0,1,2.286,6.889c-.938,1.935-2.844,2.814-6.185,2.814h-2.169v-10.26h2.433A8.792,8.792,0,0,1,641.586-272.773Z" transform="translate(-394.281 -392.863)" fill="#fff"/>
      <path id="Path_14" data-name="Path 14" d="M564.506-189.236a17.534,17.534,0,0,0-10.7,5.629,17.524,17.524,0,0,0,.5,24.537,15.868,15.868,0,0,0,8.091,4.691,17.685,17.685,0,0,0,15.3-3.078c1.73-1.29,3.987-3.811,3.811-4.251-.059-.117-1.261-1.2-2.7-2.463l-2.58-2.257-.792,1.026a10.719,10.719,0,0,1-15.86,1.055,13,13,0,0,1-1.964-2.7c-.733-1.407-.821-1.847-.821-4.485,0-2.521.088-3.137.733-4.4a10.637,10.637,0,0,1,12.2-5.57,11.411,11.411,0,0,1,5.511,3.459l1,1.2,1.29-1.055c.7-.557,1.935-1.642,2.726-2.345l1.466-1.319-1.143-1.407A18.027,18.027,0,0,0,564.506-189.236Z" transform="translate(-335.64 -454.941)" fill="#fff"/>
      <path id="Path_15" data-name="Path 15" d="M83.869-186.366c-6.977,1.847-10.583,6.508-9.029,11.785,1.114,3.9,4.808,5.8,14.629,7.563,6.6,1.173,8.531,2.14,8.531,4.221,0,1.436-.85,2.492-2.7,3.342-1.583.733-1.935.792-5.922.792-4.72,0-6.567-.381-10.055-1.964a9.03,9.03,0,0,0-2.081-.792c-.352.44-3.137,5.629-3.049,5.687a47.073,47.073,0,0,0,6.919,2.55,41.518,41.518,0,0,0,13.632.41c6.567-1.231,9.821-4.251,10.114-9.322.235-4.192-.938-6.362-4.544-8.238-2.58-1.349-4.808-1.994-10.5-3.137-4.954-.967-6.362-1.436-7.388-2.4a2.327,2.327,0,0,1,.029-3.313c2.111-2.111,9.674-2.2,15.537-.147a4.424,4.424,0,0,0,1.964.381,55.765,55.765,0,0,0,2.316-5.482c0-.264-4.485-1.583-7.006-2.052A32.182,32.182,0,0,0,83.869-186.366Z" transform="translate(0 -456.668)" fill="#fff"/>
      <path id="Path_16" data-name="Path 16" d="M192.33-185.572c.088.293,2.14,7.593,4.573,16.212s4.485,15.918,4.573,16.182c.147.469.616.528,4.221.528h4.075l.322-1.114c2.9-10.5,5.834-20.345,5.98-19.993.088.235,1.466,5.042,3.049,10.7L222-152.8l4.1.088,4.1.088,4.661-16.358c2.55-9,4.69-16.534,4.778-16.739.088-.264-.733-.352-3.577-.352H232.4l-.41,1.378c-.235.792-1.642,6.068-3.137,11.726-1.524,5.687-2.814,10.348-2.932,10.348-.088,0-1.466-4.456-3.049-9.909-1.583-5.423-3.137-10.7-3.459-11.726l-.557-1.847-2.99.088-2.99.088L209.45-174.2c-1.876,6.449-3.43,11.785-3.459,11.873s-1.348-4.661-2.9-10.554c-1.583-5.892-3.049-11.257-3.225-11.961l-.352-1.231h-3.664C192.476-186.071,192.183-186.041,192.33-185.572Z" transform="translate(-83.483 -457.256)" fill="#fff"/>
      <path id="Path_17" data-name="Path 17" d="M382-169.361v16.71h7.622l-.059-16.651-.088-16.622-3.723-.088L382-186.1Z" transform="translate(-217.571 -457.256)" fill="#fff"/>
      <path id="Path_18" data-name="Path 18" d="M435-182.336v3.665h10.554v26.091h7.329v-26.091l5.218-.059,5.189-.088v-7.036l-14.13-.088L435-186Z" transform="translate(-255.033 -457.327)" fill="#fff"/>
      <path id="Path_19" data-name="Path 19" d="M686-169.361v16.71h7.036v-13.192h15.537v13.192h7.036L715.55-169.3l-.088-16.622-3.43-.088-3.459-.088v13.221H693.036v-13.192H686Z" transform="translate(-432.451 -457.256)" fill="#fff"/>
    </g>
    <g id="Laag_2-2" data-name="Laag 2" transform="translate(0.146 0.005)">
      <g id="Laag_1" data-name="Laag 1" transform="translate(0 -0.005)">
        <path id="path456" d="M0,6.89H9.237L21.972,27.528V6.89h9.161v29.6H22L9.161,15.85V36.488H0Z" transform="translate(0 10.464)" fill="#fff"/>
        <path id="path458" d="M35.042,8.1h8.909v4h4.807v2.919H43.952V34.652H35.042V15.021H30.21V12.1h4.832v-4Z" transform="translate(45.823 12.299)" fill="#fff"/>
        <path id="path460" d="M14.39,10.83H23.3V30.537H14.39Z" transform="translate(21.827 16.44)" fill="#fff"/>
        <path id="path462" d="M14.38,6.89h8.935v6.066H14.38Z" transform="translate(21.812 10.464)" fill="#fff"/>
        <path id="path464" d="M84.177,10.3C77,10.3,71.19,15.334,71.19,21.349S77,32.4,84.177,32.4s13.012-5.034,13.012-11.049S91.375,10.3,84.177,10.3m3.574,11.024V25.5c0,3.121-1.837,4.43-3.649,4.43s-3.624-1.309-3.624-4.43V17.1c0-3.121,1.862-4.4,3.624-4.4s3.649,1.284,3.649,4.4v4.178Z" transform="translate(107.981 15.636)" fill="#fff"/>
        <path id="path466" d="M76.461,26.571V23.048a3.5,3.5,0,1,0-6.972,0v7a3.5,3.5,0,1,0,6.972,0Zm0-19.681h8.633v29.6H76.385V35.355a10.722,10.722,0,0,1-10.243.755,10.52,10.52,0,0,1-6.091-9.765,10.7,10.7,0,0,1,11.3-10.319,11.829,11.829,0,0,1,5.034,1.787V6.89Z" transform="translate(91.083 10.464)" fill="#fff"/>
        <path id="path468" d="M35.8,10.477a9.614,9.614,0,0,1,10.067,9.891v10.7H37.009V18.153a3.951,3.951,0,0,0-4.077-3.624A4.1,4.1,0,0,0,28.7,18.153V31.064H19.87V11.383H28.7v2.064a10.923,10.923,0,0,1,7.1-2.97" transform="translate(30.139 15.887)" fill="#fff"/>
        <path id="path470" d="M64.541,10.477a9.614,9.614,0,0,1,10.067,9.891v10.7H65.724V18.153a3.951,3.951,0,0,0-4.077-3.624,4.077,4.077,0,0,0-4.2,3.624V31.064H48.61V11.383h8.834v2.064a10.822,10.822,0,0,1,7.1-2.97" transform="translate(73.732 15.887)" fill="#fff"/>
        <path id="path472" d="M53.988,24.384a10.067,10.067,0,0,1,0,1.183c0,3.6-2.366,4.4-3.7,4.4s-3.725-.805-3.725-4.4V21.515H63.325c0-6.116-5.889-11.175-13.138-11.175S37.1,15.374,37.1,21.389s5.864,11.049,13.087,11.049a13.012,13.012,0,0,0,12.584-8.079Zm-7.374-5.94a7.148,7.148,0,0,1,.579-3.926,3.6,3.6,0,0,1,6.242,0,7.374,7.374,0,0,1,.6,3.851Z" transform="translate(56.273 15.697)" fill="#fff"/>
        <g id="layer1-2" data-name="layer1" transform="translate(215.57)">
          <g id="g4811">
            <g id="g4816">
              <path id="path4644-6" d="M117.409.519C104.649.746,87.987,6.962,85.8,26.971c-1.711,15.73,12.055,23.2,21.217,23.054a22.651,22.651,0,0,0,14.144-4.857L123,27.55H109.179l-.654,6.292h6.644v6.443c-2.089,2.215-7.55,3.02-8.884,3.02-5.763,0-13.792-5.034-13.364-15.881S107.518,2.256,126.494,8.6l.428-6.8A24.514,24.514,0,0,0,117.409.519Z" transform="translate(-85.652 0.727)" fill="#fff" fill-rule="evenodd"/>
              <path id="_44104296-3-2" data-name=" 44104296-3-2" d="M163.93.4,157.26,48.421h11.628c9.639,0,17.618-1.309,19.354-13.188,1.032-6.67-4.1-11.149-6.619-13.389,1.611-1.183,3.423-.68,4.329-8.255A12.383,12.383,0,0,0,174.827.4Zm6.091,6.745h3.725a5.587,5.587,0,0,1,5.512,5.436c-.226,1.812-1.56,6.317-8.582,6.317h-2.139ZM167.327,25.9h6.166c5.26,0,8.23,6.493,7.953,8.809s-1.938,7.475-10.873,7.475h-5.562Z" transform="translate(22.963 0.62)" fill="#fff" fill-rule="evenodd"/>
              <path id="path4686-9" d="M193.457.008c-6.695,0-15.4,4.53-20.386,20.134-5.713,17.97,2.215,26.577,10.294,28.868S203.776,46.846,208.18,29.5,206.242,1.82,196.2.134a15.932,15.932,0,0,0-2.743-.126Zm.428,6.745a6.493,6.493,0,0,1,.73,0c3.524.453,10.722,4.128,6.77,20.134S188.424,43.5,185.328,42.794s-9.363-4.153-5.587-18.7C183.264,10.478,190.009,6.7,193.86,6.828Z" transform="translate(43.998 0.005)" fill="#fff" fill-rule="evenodd"/>
              <path id="_43441624-7-1" data-name=" 43441624-7-1" d="M169.773,48.3l.805-6.8H146.946l2.089-14.421H164.79l.831-6.8H149.991l1.963-12.785h17.618L170.528.56H145.989L139.37,48.379Z" transform="translate(-4.173 0.862)" fill="#fff" fill-rule="evenodd"/>
              <path id="_43443024-5-2" data-name=" 43443024-5-2" d="M194.652.4l8.859,16.913L215.819.4h9.06L206.154,24.41l-3.171,23.733h-7.425l3.247-23.733L186.07.4Z" transform="translate(66.662 0.62)" fill="#fff" fill-rule="evenodd"/>
              <path id="path4642-3-7" d="M116.87,48.2h6.946l11-32.039L144.052,48.2l16.636-32.039L162.072,48.2h6.695L167.256.63H161.09L145.864,29.246,138.615.63h-6.04Z" transform="translate(-38.301 0.969)" fill="#fff" fill-rule="evenodd"/>
              <path id="path4739-0" d="M123.012.65,101.04,48.469h7.7l5.965-13.037h13.616l2.517,13.037h6.669L129.228.65Zm1.334,13.817,2.743,14.472h-9.363Z" transform="translate(-62.312 0.999)" fill="#fff"/>
            </g>
          </g>
        </g>
        <path id="Path_1" data-name="Path 1" d="M197.79,16.221h4.1V27.647h2.768V16.221h4.077V13.88H197.79Z" transform="translate(300.009 21.066)" fill="#fff"/>
        <path id="Path_2" data-name="Path 2" d="M209.919,23.268l-2.492-9.388H203.25V27.647h2.592V16.8l2.718,10.847h2.693L213.972,16.8V27.647h2.592V13.88h-4.178Z" transform="translate(308.291 21.066)" fill="#fff"/>
      </g>
    </g>
  </g>
</svg>
