<svg xmlns="http://www.w3.org/2000/svg" viewBox="0 0 248.73 64.67"><defs><style>.cls-1,.cls-2{fill:#fff;}.cls-2{fill-rule:evenodd;}</style></defs><g id="Laag_2" data-name="Laag 2"><g id="Laag_1-2" data-name="Laag 1"><g id="g9107"><g id="g20"><path id="path22" class="cls-1" d="M106.74,51.19c-1.53,0-2.18-2-2.18-7.65,0-2.91,1.41-3.64,5.46-3.64l2.72,0c-1.29,4-3,11.27-6,11.27m-8.2-3.82a16.29,16.29,0,0,0,.4,3.82H77.56c-2.85,0-4.66-.66-4.66-3.28V40.63h6.73a23.16,23.16,0,0,0,1.1-4.74H72.9c0-2.24.19-4.25.36-6.56a14.26,14.26,0,0,0-6.19,3.79v2.77H63.6a44.55,44.55,0,0,0-.36,4.74h3.83v7.65c0,5.35,3.24,7.65,7.68,7.65h29.07c3.57,0,6.3-2.92,8.93-9.53v9.53h5.83v-20c-2.62-.22-5-.37-7.65-.37-7.21,0-12.39,3-12.39,11.85m30.6-2.23v-2a49.68,49.68,0,0,0-.54-7.29H123c.18,2.55.36,4.74.36,7.29V55.93h5.83c0-7.15,2.3-15.27,8.38-14.39a39.21,39.21,0,0,0-.54-6c-4.44.39-6.62,4.3-7.84,9.62m-80.29,6c-1.53,0-2.19-2-2.19-7.65,0-2.91,1.43-3.64,5.47-3.64l2.73,0c-1.3,4-3,11.27-6,11.27m-8.19-3.82c0,6,2.18,8.92,5.09,8.92,3.58,0,6.43-3.16,9.11-9.9v9.54h5.83v-20c-2.62-.22-5-.37-7.65-.37-7.21,0-12.38,3-12.38,11.85M230.6,38.08c0-5-3.46-8-9.65-8a17.56,17.56,0,0,0-7.47,1.46,13.58,13.58,0,0,0-1.82,4.91,20.16,20.16,0,0,1,8-1.63c2.73,0,4.92,1.16,4.92,4.37,0,3.46-2.15,6-13.85,12.75a22.76,22.76,0,0,0,.37,4h19.31a21.93,21.93,0,0,0,1.09-4.74H215.08c8.21-2.81,15.52-5.74,15.52-13.11M26.93,50.33l-.3-.16c-3.5-1.86-8.2-4.69-8.2-9.87,0-4.74,3.06-7,6.74-7,4.08,0,6.56,2.88,6.56,7.91,0,3.46-1.91,6.52-4.8,9.08m11.17,6-9.59-5.12c5.43-2,9.41-5.86,9.41-11.38,0-7.43-5.57-11.18-12.75-11.18-6.59,0-12.93,4.22-12.93,12.38,0,6.89,5.25,11,11,14l18.51,9.65c0-4.26-.51-6.7-3.65-8.38M174.5,54.1c-1.64,0-6.74-3.31-6.74-12.2,0-4.37,2.55-7.1,6.74-7.1s6.74,2.73,6.74,7.1c0,8.89-5.1,12.2-6.74,12.2m0-24c-7.29,0-12.75,4.37-12.75,11.48,0,9.29,8.92,14.75,12.75,14.75s12.75-5.46,12.75-14.75c0-7.11-5.46-11.48-12.75-11.48m.08,9.93a16,16,0,0,0-3.33,3.19,16.22,16.22,0,0,0,3.33,3.18,16.74,16.74,0,0,0,3.33-3.18A16.51,16.51,0,0,0,174.58,40M208,38.08c0-5-3.47-8-9.66-8a17.6,17.6,0,0,0-7.47,1.46,14,14,0,0,0-1.82,4.91,20.16,20.16,0,0,1,8-1.63c2.74,0,4.92,1.16,4.92,4.37,0,3.46-2.15,6-13.84,12.75a23.49,23.49,0,0,0,.36,4h19.31a22.57,22.57,0,0,0,1.1-4.74H192.49C200.7,48.38,208,45.45,208,38.08m-49.19,0c0-5-3.46-8-9.65-8a17.56,17.56,0,0,0-7.47,1.46,14,14,0,0,0-1.82,4.91,20.17,20.17,0,0,1,8-1.63c2.73,0,4.91,1.16,4.91,4.37,0,3.46-2.15,6-13.84,12.75a22.76,22.76,0,0,0,.37,4h19.3a21.93,21.93,0,0,0,1.09-4.74H143.31c8.21-2.81,15.52-5.74,15.52-13.11"/></g><g id="g24"><path id="path26" class="cls-1" d="M208.55,21.48c-.83.21-1.73.4-2.72.59a20,20,0,0,1-3.68.28,17.17,17.17,0,0,1-4.39-.59,11.84,11.84,0,0,1-4-1.89,9.93,9.93,0,0,1-2.9-3.42,10.81,10.81,0,0,1-1.14-5.18,12.37,12.37,0,0,1,.93-4.94,9.62,9.62,0,0,1,2.59-3.53A10.76,10.76,0,0,1,197.18.7a16.55,16.55,0,0,1,4.93-.7,15.78,15.78,0,0,1,3.25.33c1.06.21,2.11.48,3.16.79l-.46,4.67a12.44,12.44,0,0,0-2.77-1.15,11.33,11.33,0,0,0-2.86-.37,7.08,7.08,0,0,0-2.79.53,6.2,6.2,0,0,0-2.12,1.45,6.44,6.44,0,0,0-1.37,2.22,7.91,7.91,0,0,0-.47,2.8,7.24,7.24,0,0,0,.54,2.85,6.3,6.3,0,0,0,1.48,2.15A6.46,6.46,0,0,0,200,17.61a8.75,8.75,0,0,0,2.91.47,12.06,12.06,0,0,0,2.81-.33,17.26,17.26,0,0,0,2.57-.79Z"/></g><g id="g28"><path id="path30" class="cls-1" d="M229.29,13.77a9.87,9.87,0,0,1-.68,3.84,7,7,0,0,1-1.94,2.66,8,8,0,0,1-3,1.57,14.82,14.82,0,0,1-7.71,0,8.11,8.11,0,0,1-3-1.57A6.85,6.85,0,0,1,211,17.61a9.69,9.69,0,0,1-.68-3.84V.37h5.75V12.82a11.7,11.7,0,0,0,.17,2,5.49,5.49,0,0,0,.59,1.67A3.12,3.12,0,0,0,218,17.66a3.57,3.57,0,0,0,1.83.42,3.53,3.53,0,0,0,1.82-.42,3,3,0,0,0,1.13-1.15,5,5,0,0,0,.59-1.67,11.7,11.7,0,0,0,.17-2V.37h5.76Z"/></g><g id="g32"><path id="path34" class="cls-1" d="M237.92,10.34h1.49a6.82,6.82,0,0,0,1.39-.14,3,3,0,0,0,1.13-.5,2.42,2.42,0,0,0,.76-.93,3.26,3.26,0,0,0,.28-1.4A3.15,3.15,0,0,0,242.69,6a2.47,2.47,0,0,0-.76-.9,3,3,0,0,0-1.13-.48,6.18,6.18,0,0,0-1.39-.14h-1.49Zm-5.75-10H239c3.32,0,5.77.58,7.34,1.72a6.24,6.24,0,0,1,2.35,5.37,6.24,6.24,0,0,1-2.26,5.12,9.75,9.75,0,0,1-6.32,1.84h-2.23V22h-5.75Z"/></g><g id="g36"><path id="path38" class="cls-1" d="M69.68.37h5.88L78.35,17h.06L81.32.37h7.3l3,16.59h.07L94.53.37h5.61L95.31,22h-7.4L84.85,5.39h-.07L81.94,22H74.48Z"/></g><g id="g40"><path id="path42" class="cls-1" d="M106.3,11.17a11.68,11.68,0,0,0,.28,2.59,7.13,7.13,0,0,0,.86,2.21A4.54,4.54,0,0,0,109,17.5a4.58,4.58,0,0,0,4.46,0A4.6,4.6,0,0,0,114.93,16a7.39,7.39,0,0,0,.87-2.21,12.31,12.31,0,0,0,.28-2.59,12.49,12.49,0,0,0-.28-2.64,7.13,7.13,0,0,0-.87-2.2,4.51,4.51,0,0,0-1.51-1.5,4.8,4.8,0,0,0-4.46,0,4.45,4.45,0,0,0-1.52,1.5,6.88,6.88,0,0,0-.86,2.2,11.87,11.87,0,0,0-.28,2.64m-6,0a14.46,14.46,0,0,1,.7-4.67A9.3,9.3,0,0,1,103.11,3,8.92,8.92,0,0,1,106.49.78a14.49,14.49,0,0,1,9.38,0A8.8,8.8,0,0,1,119.26,3a9.3,9.3,0,0,1,2.06,3.51,14.46,14.46,0,0,1,.7,4.67,14.42,14.42,0,0,1-.7,4.65,9.36,9.36,0,0,1-2.07,3.52,9,9,0,0,1-3.41,2.23,14.34,14.34,0,0,1-9.33,0,9,9,0,0,1-3.39-2.23,9.23,9.23,0,0,1-2.07-3.52,14.42,14.42,0,0,1-.7-4.65"/></g><g id="g44"><path id="path46" class="cls-1" d="M129.94,9.35h1.52c.45,0,.93,0,1.44,0A4.38,4.38,0,0,0,134.26,9a2.57,2.57,0,0,0,1-.74,2.23,2.23,0,0,0,.41-1.43,2,2,0,0,0-.36-1.22,2.25,2.25,0,0,0-.93-.73,5.27,5.27,0,0,0-1.33-.34,13.36,13.36,0,0,0-1.59-.09h-1.52Zm-5.75-9h10.27a10.6,10.6,0,0,1,2.69.33,6.41,6.41,0,0,1,2.23,1,4.77,4.77,0,0,1,1.5,1.69,5.14,5.14,0,0,1,.54,2.42,5.88,5.88,0,0,1-1,3.56,5.15,5.15,0,0,1-3.12,1.89v.06a2.48,2.48,0,0,1,1.1.59,3.83,3.83,0,0,1,.72,1,9.25,9.25,0,0,1,.57,1.4c.18.52.4,1.12.67,1.78L142.45,22h-6l-1.25-3.89a22.61,22.61,0,0,0-.82-2.29,5.68,5.68,0,0,0-.83-1.43,2.31,2.31,0,0,0-1-.72,4,4,0,0,0-1.37-.21h-1.21V22h-5.75Z"/></g><g id="g48"><path id="path50" class="cls-1" d="M144.92.37h5.76V17.71h8.91V22H144.92Z"/></g><g id="g52"><path id="path54" class="cls-1" d="M167.36,17.7h2.23a6.92,6.92,0,0,0,5-1.64,6.4,6.4,0,0,0,1.74-4.89,6.4,6.4,0,0,0-1.77-4.89,7,7,0,0,0-4.95-1.64h-2.23ZM161.6.37h7.86a25.06,25.06,0,0,1,5.17.5,10.35,10.35,0,0,1,4,1.72,8,8,0,0,1,2.63,3.29,12.55,12.55,0,0,1,.95,5.2,12.11,12.11,0,0,1-1,5.11,8.79,8.79,0,0,1-2.66,3.36,11.05,11.05,0,0,1-4.06,1.85,21.66,21.66,0,0,1-5.11.58H161.6Z"/></g><g id="g56"><path id="path58" class="cls-2" d="M0,.37V22H6.72V14.17h4.84l1.73-4.72H6.72V5.08h8.15L16.59.37Z"/></g><path id="path60" class="cls-2" d="M18.65,22h6.72V.37H18.65Z"/><g id="g62"><path id="path64" class="cls-2" d="M30,.37V22h6.72V14.17h4.84l1.72-4.72H36.72V5.08h8.15L46.59.37Z"/></g><g id="g66"><path id="path68" class="cls-2" d="M57.06,14.92l-2.69-9-2.59,9ZM65.84,22H59.05l-.88-2.91h-7.6L49.73,22H43.11L51,.37h7Z"/></g></g></g></g></svg>